<svg width="45" height="45" viewBox="0 0 45 45" fill="none" xmlns="http://www.w3.org/2000/svg">
<g>
<path d="M8.28956 21.7105C6.33628 28.4075 9.07902 32.3683 18.5527 32.3683C31.1835 32.3683 35.6588 34.7367 38.2903 26.842C40.9219 18.9472 34.3422 9.47377 25.658 9.47363C17.1803 9.4735 11.0527 12.2368 8.28956 21.7105Z" fill="#4F915C"/>
<path d="M18.1579 21.3157C18.1579 21.3198 18.1579 21.324 18.1731 21.4028C18.1884 21.4817 18.2188 21.6351 18.2345 21.7473C18.2502 21.8595 18.2502 21.9259 18.2634 22.0445" stroke="white" stroke-width="2" stroke-linecap="round" stroke-linejoin="round"/>
<path d="M22.8948 19.7368C22.8948 19.741 22.8948 19.7451 22.91 19.824C22.9252 19.9028 22.9557 20.0562 22.9714 20.1685C22.9871 20.2807 22.9871 20.347 23.0003 20.4656" stroke="white" stroke-width="2" stroke-linecap="round" stroke-linejoin="round"/>
</g>
</svg>
