<svg width="48" height="48" viewBox="0 0 48 48" fill="none" xmlns="http://www.w3.org/2000/svg">
<path d="M5.731 17.994C5.731 16.814 6.91 16.224 9.859 12.98C10.932 11.801 12.218 10.5 13.398 10.5C15.126 10.5 28.437 11.385 30.797 11.68C33.156 11.975 33.785 12.341 33.6 12.98M5.731 17.994C5.731 19.173 10.411 19.974 24.861 19.974M5.731 17.994C5.731 17.994 5.212 26.535 5.731 28.61C6.249 30.685 14.577 30.685 17.821 30.685M29.636 19.031C32.29 16.377 33.51 13.294 33.6 12.98M39.043 23.475C40.419 24.065 43.811 26.173 43.477 26.84C42.592 28.61 38.703 32.027 36.694 35.392C34.686 38.757 35.127 38.656 33.6 38.22C31.536 37.63 26.963 37.63 24.014 34.681M33.451 19.974C32.231 19.663 31.031 19.369 30.207 19.173C29.697 18.976 27.507 18.5 26.078 18.757C24.934 18.963 20.77 26.84 18.706 29.494C16.642 32.148 15.757 33.918 17.821 33.918C19.22 33.918 21.31 34.236 24.014 34.681C25.301 34.893 27.867 35.202 28.437 35.392C30.207 35.982 30.797 36.572 31.681 33.918C32.566 31.264 34.925 29.494 37.284 26.251C40.501 21.827 39.349 21.827 37.874 21.237C37.165 20.954 35.286 20.443 33.451 19.974ZM33.6 12.98L33.451 19.974" stroke="black" stroke-width="1.684"/>
<path d="M26.21 28.901C28.418 27.797 29.89 29.269 30.626 30.741" stroke="black" stroke-width="1.684" stroke-linecap="round"/>
<path d="M26.464 25.428C26.464 25.432 26.464 25.436 26.478 25.515C26.493 25.595 26.522 25.749 26.537 25.862C26.552 25.975 26.552 26.041 26.565 26.16" stroke="black" stroke-width="1.684" stroke-linecap="round" stroke-linejoin="round"/>
<path d="M30.88 26.164C30.88 26.168 30.88 26.172 30.894 26.252C30.909 26.331 30.938 26.485 30.953 26.598C30.968 26.711 30.968 26.778 30.981 26.897" stroke="black" stroke-width="1.684" stroke-linecap="round" stroke-linejoin="round"/>
</svg>
